<svg width="21" height="16" viewBox="0 0 21 16" fill="none" xmlns="http://www.w3.org/2000/svg">
<path d="M19.8414 2.58117C19.4486 2.16962 18.9061 1.92643 18.2887 1.92643H15.2208C15.2001 1.92643 15.1834 1.90968 15.1834 1.88901C15.1834 1.42134 14.9963 0.972369 14.6783 0.673058C14.3603 0.355039 13.93 0.167969 13.4623 0.167969H7.85024C7.36385 0.167969 6.93359 0.355039 6.61557 0.673058C6.29756 0.991076 6.11049 1.42134 6.11049 1.88901C6.11049 1.90968 6.09373 1.92643 6.07307 1.92643H3.02383C2.4065 1.92643 1.864 2.16962 1.47115 2.58117C1.0783 2.97402 0.816406 3.53523 0.816406 4.13385V13.4499C0.816406 14.0673 1.0596 14.6098 1.47115 15.0026C1.864 15.3955 2.42521 15.6574 3.02383 15.6574H18.2887C18.9061 15.6574 19.4486 15.4142 19.8414 15.0026C20.2343 14.6098 20.4962 14.0486 20.4962 13.4499V4.13385C20.4962 3.51652 20.253 2.97402 19.8414 2.58117ZM19.5234 13.4406C19.5234 13.4457 19.5192 13.4499 19.514 13.4499C19.5089 13.4499 19.5047 13.4541 19.5047 13.4593C19.5023 13.7922 19.3717 14.0881 19.1493 14.3105C18.9248 14.5349 18.6255 14.6659 18.2887 14.6659H3.02383C2.68711 14.6659 2.38779 14.5349 2.16331 14.3105C1.93883 14.086 1.80788 13.7867 1.80788 13.4499V4.13385C1.80788 3.79713 1.93883 3.49781 2.16331 3.27333C2.38779 3.04885 2.68711 2.9179 3.02383 2.9179H6.63428C6.91489 2.9179 7.13937 2.69341 7.13937 2.41281V1.87031C7.13937 1.66453 7.2142 1.47746 7.34515 1.34651C7.4761 1.21556 7.66317 1.14073 7.86894 1.14073H13.4623C13.6681 1.14073 13.8552 1.21556 13.9861 1.34651C14.1171 1.47746 14.1919 1.66453 14.1919 1.87031V2.41281C14.1919 2.69341 14.4164 2.9179 14.697 2.9179H18.3074C18.6442 2.9179 18.9435 3.04885 19.168 3.27333C19.3925 3.49781 19.5234 3.79713 19.5234 4.13385V13.4406Z" fill="#212121"/>
<path d="M10.6566 4.18945C9.38453 4.18945 8.2247 4.71325 7.40159 5.53636C6.55978 6.37817 6.05469 7.5193 6.05469 8.79137C6.05469 10.0634 6.57848 11.2233 7.40159 12.0464C8.24341 12.8882 9.38453 13.3933 10.6566 13.3933C11.9287 13.3933 13.0885 12.8695 13.9116 12.0464C14.7534 11.2046 15.2585 10.0634 15.2585 8.79137C15.2585 7.5193 14.7347 6.35946 13.9116 5.53636C13.0885 4.71325 11.9287 4.18945 10.6566 4.18945ZM13.2008 11.3542C12.546 11.9903 11.6481 12.4018 10.6566 12.4018C9.66514 12.4018 8.7672 11.9903 8.11246 11.3542C7.45771 10.6995 7.06487 9.80155 7.06487 8.81008C7.06487 7.81861 7.47642 6.92067 8.11246 6.26593C8.7672 5.61118 9.66514 5.21834 10.6566 5.21834C11.6481 5.21834 12.546 5.62989 13.2008 6.26593C13.8555 6.92067 14.2484 7.81861 14.2484 8.81008C14.2671 9.80155 13.8555 10.6995 13.2008 11.3542Z" fill="#212121"/>
<path d="M17.3151 6.00418C17.8213 6.00418 18.2317 5.59379 18.2317 5.08754C18.2317 4.58129 17.8213 4.1709 17.3151 4.1709C16.8088 4.1709 16.3984 4.58129 16.3984 5.08754C16.3984 5.59379 16.8088 6.00418 17.3151 6.00418Z" fill="#212121"/>
</svg>
