<svg width="10" height="14" viewBox="0 0 10 14" fill="none" xmlns="http://www.w3.org/2000/svg">
<path d="M1.19524 4.50412H8.80688C8.81473 4.59769 8.843 4.09801 8.29189 12.3651C8.26285 12.8014 7.89736 13.1434 7.45988 13.1434H2.54224C2.10476 13.1434 1.73927 12.8014 1.71023 12.3651C1.15864 4.09088 1.18756 4.59579 1.19524 4.50412ZM6.50357 11.6061C6.71672 11.6242 6.90107 11.4668 6.91945 11.2569L7.30342 6.84127C7.3219 6.62985 7.16543 6.44387 6.95425 6.42539C6.74307 6.40715 6.55684 6.56338 6.53837 6.77456L6.1544 11.1902C6.13592 11.4016 6.29239 11.5876 6.50357 11.6061ZM4.6171 11.2235C4.6171 11.4357 4.78892 11.6075 5.00106 11.6075C5.2132 11.6075 5.38503 11.4357 5.38503 11.2235V6.80792C5.38503 6.59578 5.2132 6.42395 5.00106 6.42395C4.78892 6.42395 4.6171 6.59578 4.6171 6.80792V11.2235ZM2.69871 6.84127L3.08267 11.2569C3.09995 11.4568 3.2677 11.6075 3.46472 11.6075C3.69162 11.6075 3.86723 11.4135 3.84772 11.1902L3.46376 6.77456C3.44528 6.56338 3.2593 6.40715 3.04788 6.42539C2.83669 6.44387 2.68023 6.62985 2.69871 6.84127ZM1.03541 2.20033H2.89213C2.88824 2.14981 2.88925 2.18756 2.88925 1.69037C2.88925 1.23057 3.26338 0.856445 3.72318 0.856445H6.27895C6.73875 0.856445 7.11287 1.23057 7.11287 1.69037C7.11287 2.17796 7.11391 2.14962 7.10999 2.20033H8.96671C9.42651 2.20033 9.80064 2.57445 9.80064 3.03425C9.80064 3.72018 9.80172 3.68767 9.798 3.73619H0.204128C0.20036 3.68692 0.201488 3.71622 0.201488 3.03425C0.201488 2.57445 0.575615 2.20033 1.03541 2.20033ZM3.65718 2.13433C3.65718 2.17081 3.6867 2.20033 3.72318 2.20033H6.27895C6.31543 2.20033 6.34494 2.17081 6.34494 2.13433V1.69037C6.34494 1.65389 6.31543 1.62438 6.27895 1.62438H3.72318C3.6867 1.62438 3.65718 1.65389 3.65718 1.69037V2.13433Z" fill="#7E7E7E"/>
</svg>
