<svg width="20" height="20" viewBox="0 0 20 20" fill="none" xmlns="http://www.w3.org/2000/svg">
<g clip-path="url(#clip0_6_36730)">
<path d="M10.4038 7.54688C9.33728 7.54688 8.47266 8.41145 8.47266 9.47801C8.47266 10.5445 9.33723 11.4091 10.4038 11.4091C11.4703 11.4091 12.3349 10.5446 12.3349 9.47801C12.3349 8.41145 11.4703 7.54688 10.4038 7.54688ZM10.4038 10.4895C9.84512 10.4895 9.39224 10.0366 9.39224 9.47796C9.39224 8.9193 9.84512 8.46641 10.4038 8.46641C10.9625 8.46641 11.4153 8.9193 11.4153 9.47796C11.4153 10.0366 10.9625 10.4895 10.4038 10.4895Z" fill="#212121"/>
<path d="M18.1052 3.13292L5.55289 1.7076C5.06573 1.63834 4.57215 1.78056 4.19653 2.09844C3.82096 2.38966 3.58022 2.82133 3.52984 3.29388L3.29996 5.17903H2.58724C1.57569 5.17903 0.817028 6.0756 0.817028 7.08715V16.4898C0.79155 17.4544 1.55285 18.2571 2.51749 18.2826C2.54073 18.2832 2.56401 18.2833 2.58724 18.283H15.2085C16.22 18.283 17.1396 17.5014 17.1396 16.4898V16.122C17.4532 16.0614 17.7507 15.9361 18.0132 15.7542C18.3857 15.4406 18.6242 14.9965 18.6799 14.5128L19.7374 5.17903C19.8452 4.16515 19.1176 3.25309 18.1052 3.13292ZM16.22 16.4898C16.22 16.9956 15.7142 17.3634 15.2085 17.3634H2.58724C2.13035 17.3769 1.74911 17.0174 1.73569 16.5605C1.73498 16.5369 1.73529 16.5134 1.73661 16.4898V14.7886L5.30001 12.1678C5.72807 11.8392 6.331 11.8684 6.72536 12.2368L9.23123 14.4438C9.61177 14.7633 10.0908 14.9419 10.5876 14.9495C10.9761 14.9543 11.3582 14.8508 11.6911 14.6507L16.2201 12.0299V16.4898H16.22ZM16.22 10.9494L11.2083 13.869C10.7779 14.124 10.2332 14.0778 9.85189 13.7541L7.32306 11.5241C6.59828 10.9013 5.53894 10.8631 4.77122 11.4321L1.73661 13.6391V7.08715C1.73661 6.58137 2.08147 6.09861 2.58724 6.09861H15.2085C15.7488 6.12101 16.1852 6.54749 16.22 7.08715V10.9494ZM18.8187 5.0549C18.8184 5.05793 18.8182 5.06101 18.8178 5.06405L17.7373 14.3978C17.7391 14.6398 17.6288 14.869 17.4384 15.0185C17.3465 15.1105 17.1396 15.1564 17.1396 15.2024V7.08715C17.1033 6.03982 16.2561 5.20275 15.2084 5.17903H4.2195L4.42641 3.38585C4.47129 3.15364 4.59269 2.94322 4.77126 2.78811C4.97288 2.6487 5.21666 2.58371 5.46097 2.60417L17.9903 4.0525C18.4958 4.10051 18.8667 4.5493 18.8187 5.0549Z" fill="#212121"/>
</g>
<defs>
<clipPath id="clip0_6_36730">
<rect x="0.816406" y="0.521484" width="18.9316" height="18.9316" rx="9.46579" fill="white"/>
</clipPath>
</defs>
</svg>
