<svg width="72" height="70" viewBox="0 0 72 70" fill="none" xmlns="http://www.w3.org/2000/svg">
<circle cx="36.9683" cy="35.0454" r="27.3003" fill="#4FC75F"/>
<circle cx="69.0957" cy="10.6494" r="2.90429" fill="#4FC75F"/>
<ellipse cx="7.74543" cy="3.87239" rx="3.87239" ry="3.87239" fill="#4FC75F"/>
<ellipse cx="3.87174" cy="51.5026" rx="1.93619" ry="1.93619" fill="#4FC75F"/>
<ellipse cx="64.0872" cy="62.1517" rx="0.968097" ry="0.968096" fill="#4FC75F"/>
<ellipse cx="41.2415" cy="1.74251" rx="0.968097" ry="0.968096" fill="#4FC75F"/>
<ellipse cx="24.203" cy="68.3475" rx="1.35534" ry="1.35533" fill="#4FC75F"/>
<circle cx="47.2427" cy="66.2173" r="0.387239" fill="#4FC75F"/>
<ellipse cx="66.0247" cy="42.7904" rx="0.968097" ry="0.968096" fill="#4FC75F"/>
<circle cx="0.387239" cy="29.0435" r="0.387239" fill="#4FC75F"/>
<path d="M33.9462 48.8481L54.6538 28.2453C55.3569 27.5457 55.3569 26.4113 54.6538 25.7117L52.1073 23.1781C51.4042 22.4784 50.264 22.4784 49.5607 23.1781L32.6729 39.9804L24.7884 32.1357C24.0852 31.4361 22.9451 31.4361 22.2418 32.1357L19.6953 34.6693C18.9922 35.3689 18.9922 36.5033 19.6953 37.2029L31.3996 48.848C32.1029 49.5477 33.2429 49.5477 33.9462 48.8481Z" fill="white"/>
</svg>
